<?xml version="1.0" standalone="no"?>
<!DOCTYPE svg PUBLIC "-//W3C//DTD SVG 20010904//EN"
 "http://www.w3.org/TR/2001/REC-SVG-20010904/DTD/svg10.dtd">
<svg version="1.0" xmlns="http://www.w3.org/2000/svg"
 width="549.000000pt" height="549.000000pt" viewBox="0 0 549.000000 549.000000"
 preserveAspectRatio="xMidYMid meet">
<metadata>
Created by potrace 1.11, written by Peter Selinger 2001-2013
</metadata>
<g transform="translate(0.000000,549.000000) scale(0.100000,-0.100000)"
fill="#000000" stroke="none">
<path d="M1190 2910 l0 -1010 105 0 105 0 0 320 0 320 333 0 c182 0 341 2 352
5 17 4 58 -49 250 -320 l229 -325 113 0 c62 0 113 3 113 6 0 3 -105 152 -233
332 -129 180 -237 333 -241 340 -5 8 8 19 41 32 218 91 344 238 394 460 29
131 5 360 -49 467 -64 124 -172 226 -308 289 -165 77 -318 94 -856 94 l-348 0
0 -1010z m948 804 c215 -43 364 -177 402 -361 18 -83 8 -245 -18 -317 -60
-165 -222 -278 -436 -306 -39 -5 -209 -10 -378 -10 l-308 0 0 505 0 505 330 0
c259 0 348 -3 408 -16z"/>
<path d="M3277 3913 c-4 -3 -7 -458 -7 -1010 l0 -1003 670 0 670 0 0 95 0 95
-565 0 -565 0 0 915 0 915 -98 0 c-54 0 -102 -3 -105 -7z"/>
</g>
</svg>
